<?xml version="1.0" encoding="UTF-8" ?>
<svg width="32px" height="32px" viewBox="0 0 32 32" version="1.1" xmlns="http://www.w3.org/2000/svg" xmlns:xlink="http://www.w3.org/1999/xlink">
    <!-- Generator: sketchtool 63.1 (101010) - https://sketch.com -->
    <title>21a6f4c2-a296-4e4b-954d-e79fa551d22f@1.00x</title>
    <desc>Created with sketchtool.</desc>
    <g id="Icons" stroke="none" stroke-width="1" fill="none" fill-rule="evenodd">
        <g id="Icons/32/Products/optimus/default" fill="currentColor">
            <g id="Group-15" transform="translate(7.000000, 8.000000)">
                <path d="M17.698365,0.9718025 L16.23584,1.0093025 L13.85584,1.0668025 C13.7778755,1.06896571 13.7003462,1.05447679 13.628425,1.0243025 L12.32337,0.484325 L12.243415,0.4517925 L12.1583325,0.42683 C11.9608325,0.36683 11.17591,0.17683 9.315925,0.17683 C7.453375,0.17683 6.66834,0.36683 6.4708325,0.42683 L6.388435,0.4517925 L6.305915,0.484325 L5.00086,1.0243025 C4.92889606,1.05447746 4.8513267,1.06896606 4.7733225,1.0668025 L2.3933225,1.0093025 L0.93092,0.9718025 C0.757472219,0.967919465 0.591898831,1.04412392 0.482037621,1.17839874 C0.372176411,1.31267355 0.330267761,1.49005825 0.36842,1.6593025 L0.69092,3.0868025 L1.66089,7.3718025 L1.7733175,7.86683 C1.78626842,7.92447898 1.81900712,7.97576883 1.865845,8.0117875 L1.928345,8.061805 C1.98569718,8.10787394 2.02108234,8.1758979 2.02588,8.249305 L2.29834,12.759305 L2.32837,13.24182 C2.3366615,13.3933386 2.40613743,13.5349919 2.52087,13.634305 L2.88587,13.946805 L6.24085,16.83679 L6.5607975,17.111815 C6.66307723,17.1998763 6.79338528,17.2486169 6.92835,17.249295 L11.700935,17.249295 C11.8358587,17.2485944 11.9661207,17.1998548 12.068365,17.111815 L12.388435,16.83679 L15.743415,13.946805 L16.108415,13.634305 C16.223103,13.5349576 16.292569,13.3933244 16.300915,13.24182 L16.3308225,12.759305 L16.603405,8.249305 C16.6081492,8.17588296 16.6435449,8.10783871 16.70094,8.061805 L16.76588,8.0117875 C16.8112313,7.97488543 16.8429064,7.92384842 16.855845,7.86683 L16.968395,7.3718025 L17.938365,3.0868025 L18.260865,1.6593025 C18.2994886,1.49000027 18.2577585,1.31234956 18.1477955,1.1779503 C18.0378324,1.04355104 17.871963,0.967468902 17.698365,0.9718025 L17.698365,0.9718025 Z M13.1533225,1.8793025 L13.06836,2.6343025 L12.97339,3.489315 L12.948365,3.6943 L12.938365,3.7943 L12.9358025,3.7993 L12.9358025,3.8018 C12.93092,3.8068 12.9458025,3.7968 12.905895,3.8217875 L12.728395,3.9293025 L12.0233175,4.3593025 L11.57593,4.6293025 L11.28589,4.806825 L10.60839,5.2167975 L9.9033125,5.6442975 L9.54833,5.859325 L9.37083,5.964305 L9.32835,5.9918325 L9.3159,5.9943325 L9.300885,5.9918325 L9.2582825,5.964305 L9.0807825,5.859325 L8.728365,5.6442975 L8.020845,5.2167975 L7.343345,4.806825 L7.053305,4.6293025 L6.60836,4.3593025 L5.90084,3.9293025 L5.72579,3.8217875 C5.68331,3.7967875 5.70089,3.806805 5.6957625,3.8018 L5.69332,3.7993 L5.69088,3.7943 L5.68088,3.6943 L5.6582975,3.489315 L5.5607625,2.6343025 L5.4758,1.8793025 L13.1533225,1.8793025 Z M8.58838,7.4743025 C8.58823168,7.43646708 8.58405819,7.39875482 8.57593,7.3618025 C8.56955073,7.32313931 8.55860935,7.28536895 8.543335,7.2492825 L8.5183125,7.1892825 L8.468385,7.0742625 L8.36841,6.8392775 C8.30091,6.6842775 8.228395,6.5317775 8.1583275,6.3767775 C8.05834917,6.1667875 7.95584917,5.9567875 7.8508275,5.7467775 L8.4533675,6.1042925 L8.8083475,6.3142925 L8.9858475,6.419305 L9.0383475,6.4492725 C9.066819,6.46410628 9.09603235,6.47747049 9.1258725,6.4893125 C9.1872215,6.50938395 9.25138897,6.51950122 9.3159375,6.51928 C9.38041396,6.51910255 9.4444784,6.50899488 9.5058775,6.4893125 C9.5359075,6.4768 9.5633775,6.4642875 9.5934025,6.4492725 L9.64333,6.419305 L9.82083,6.3142925 L10.1759325,6.1042925 L10.77835,5.7467775 C10.6733675,5.9542775 10.57083,6.1667925 10.47085,6.3767775 C10.4009025,6.5317775 10.3283925,6.6842775 10.2634525,6.8392775 L10.1633525,7.0742625 L10.1134275,7.1892825 L10.0884025,7.2492825 C10.0722431,7.28524429 10.0604798,7.32302374 10.0533675,7.3618025 C10.0459225,7.3992775 10.0433675,7.45427 10.0409175,7.4743025 L10.0409175,7.5393025 L10.0383525,7.6643025 L10.0359125,7.9193025 L10.028345,8.4268025 L10.0008775,10.4542675 L9.9934325,10.9617675 L9.9908675,11.2142675 L9.9908675,11.2492675 L9.9483875,11.2492675 L9.8233875,11.2467675 L9.3159425,11.2392925 L8.8083725,11.2467675 L8.6809325,11.2492675 L8.6408925,11.2492675 L8.6384525,11.2142675 L8.6358875,10.9617675 L8.6284425,10.4542675 L8.6034175,8.4268025 L8.59585,7.9193025 L8.59085,7.6643025 L8.59085,7.5393025 L8.58838,7.4743025 Z M6.2959,14.6367775 L4.178345,12.811795 C4.06342602,12.7123514 3.99320044,12.5709654 3.9834,12.41931 L3.7384,8.3917825 L5.035885,8.851805 C5.03376207,8.86165587 5.03290099,8.87173679 5.0333225,8.881805 L5.0333225,9.286805 C5.03434666,9.38353467 5.08060645,9.47420385 5.1583225,9.531805 L6.2959,10.371805 L6.2959,14.6367775 Z M5.3833025,8.5817775 C5.30051106,8.56943768 5.21631643,8.5920782 5.15088,8.6442775 L3.34838,6.974295 C3.31638086,6.92159523 3.29274439,6.86425357 3.2783125,6.8043125 L2.510855,3.4142975 C2.47289799,3.24533016 2.5149599,3.06829948 2.62486211,2.93446301 C2.73476432,2.80062654 2.9002318,2.72493254 3.073355,2.7292975 L4.990835,2.77428 L5.07836,3.55431 L5.10082,3.759295 L5.113395,3.8643075 C5.12101831,3.93137141 5.14048705,3.99654939 5.170895,4.0568075 C5.19984369,4.11831681 5.24061906,4.17352496 5.290895,4.2192825 C5.33103639,4.25978994 5.3774492,4.29355699 5.428345,4.3192825 L5.605845,4.4242825 L6.31837,4.844265 L7.2859,5.414265 C7.41334,5.796765 7.5459,6.17928 7.68092,6.561765 L8.0083125,7.461765 L8.00343,8.4267925 L8.000865,8.9692725 L5.3833025,8.5817775 Z M11.06836,15.5468185 L7.5607925,15.5468185 C7.45180177,15.5471884 7.34533547,15.5140081 7.25586,15.4517725 L8.2959,13.8967725 L8.3059,13.8917725 L10.323355,13.8917725 L10.333355,13.8967725 L11.3732725,15.4517725 C11.2838119,15.5140243 11.1773477,15.5472097 11.06836,15.5468185 L11.06836,15.5468185 Z M10.81836,13.57427 C10.7076999,13.4091131 10.5221619,13.3097904 10.32336,13.309285 L8.305905,13.309285 C8.10841628,13.3099607 7.92403216,13.4082255 7.81335,13.571785 L6.878415,14.969285 L6.878415,10.434285 L7.9982875,9.66177 L7.993405,10.454265 L7.99084,10.961765 L7.9884,11.214265 L7.9884,11.279265 L7.99084,11.32675 L7.99584,11.38925 C8.00896529,11.4750061 8.04053429,11.5568951 8.08837,11.62927 C8.18231235,11.7754723 8.3342025,11.8746149 8.50585,11.90177 L8.56835,11.90927 L8.6809,11.90927 L8.80834,11.91177 L9.31591,11.91427 L9.823355,11.91177 L9.948355,11.90927 L10.0607825,11.90927 L10.1232825,11.90177 C10.2956442,11.8747165 10.4483678,11.775638 10.543325,11.62927 C10.5893513,11.5562273 10.6199667,11.4745499 10.6332925,11.38925 L10.64086,11.32675 L10.64086,10.96175 L10.63842,10.45425 L10.6332925,9.66177 L11.750845,10.43179 L11.750845,14.969285 L10.81836,13.57427 Z M14.645875,12.4193025 C14.6360746,12.5709579 14.565849,12.7123439 14.45093,12.8117875 L12.3358175,14.6342875 L12.3358175,10.3717875 L13.47339,9.5317875 C13.550446,9.47390778 13.5957967,9.38316017 13.5958275,9.2867875 L13.5958275,8.8817875 C13.5962298,8.87172552 13.5954096,8.86165189 13.593385,8.8517875 L14.89087,8.391765 L14.645875,12.4193025 Z M16.11841,3.4143025 L15.35083,6.8043175 C15.3378428,6.8666785 15.3132491,6.92604257 15.27833,6.9793175 L13.4784025,8.644295 C13.4137091,8.59241149 13.3303521,8.56977022 13.2483,8.581795 L10.6308675,8.969295 L10.6284275,8.426815 L10.6208575,7.4617875 L10.9483725,6.5617875 C11.085825,6.181815 11.220835,5.796805 11.345835,5.4117875 L12.3133625,4.8442875 L13.023325,4.424305 L13.2033775,4.319305 C13.2538983,4.29296881 13.3002223,4.25926697 13.34083,4.219305 C13.3896154,4.17278679 13.4294583,4.11771801 13.4583825,4.05683 C13.4887355,3.99655003 13.5082013,3.93138205 13.5158825,3.86433 L13.528335,3.7593175 L13.5509175,3.5543325 L13.6384425,2.7743025 L15.5559225,2.72932 C15.7291901,2.72450846 15.8949476,2.80007945 16.0049486,2.9340368 C16.1149497,3.06799415 16.1568338,3.24528557 16.11841,3.4143075 L16.11841,3.4143025 Z" id="Shape"></path>
                <path d="M7.988405,3.6392825 L9.14087,4.4492825 C9.24457126,4.52429695 9.38470374,4.52429695 9.488405,4.4492825 L10.64087,3.6392825 C10.7490688,3.56382459 10.7958104,3.42689725 10.7563362,3.30102962 C10.7168621,3.17516199 10.6002973,3.08945021 10.468385,3.08928994 L8.16333,3.08928994 C8.03104771,3.08853275 7.91363819,3.17387716 7.87354383,3.29993916 C7.83344947,3.42600117 7.87998653,3.56348922 7.988405,3.6392825 Z" id="Path"></path>
            </g>
        </g>
    </g>
</svg>