<?xml version="1.0" encoding="UTF-8"?>
<svg width="170px" height="170px" viewBox="0 0 170 170" version="1.1" xmlns="http://www.w3.org/2000/svg" xmlns:xlink="http://www.w3.org/1999/xlink">
    <title>Logos/Coloured/optimus</title>
    <g id="Mood" stroke="none" stroke-width="1" fill="none" fill-rule="evenodd">
        <g id="Artboard" transform="translate(-529.000000, -321.000000)">
            <g id="Optimus" transform="translate(529.000000, 321.000000)">
                <path d="M170,85 C170,131.942578 131.945234,170 85,170 C38.0560937,170 0,131.942578 0,85 C0,38.0547656 38.0560937,0 85,0 C131.945234,0 170,38.0547656 170,85" id="Fill-283" fill="#2D2D2D"></path>
                <path d="M123.151188,66.13 L119.061891,84.1885156 C118.995484,84.521875 118.862672,84.8273437 118.675406,85.1208594 L109.087672,93.9900781 C108.754313,93.723125 108.314703,93.5903125 107.861813,93.6567188 L93.9191563,95.720625 L93.9045469,92.830625 L93.8647031,87.6907812 L95.6111875,82.89625 C96.3416563,80.8721875 97.0615,78.8215625 97.7268906,76.7709375 L102.881344,73.7467969 L106.663844,71.5102344 L107.62275,70.9510938 C107.715719,70.91125 108.115484,70.6708594 108.354547,70.4185156 C108.608219,70.178125 108.820719,69.8859375 108.980094,69.5525781 C109.140797,69.2325 109.247047,68.8871875 109.288219,68.5272656 L109.353297,67.968125 L109.472828,66.8764062 L109.940328,62.7207031 L120.153609,62.4803125 C122.111266,62.4271875 123.576188,64.2254687 123.151188,66.13 L123.151188,66.13 Z M115.307281,114.099219 C115.254156,114.910703 114.879625,115.657109 114.268688,116.189687 L103.000875,125.896953 L103.000875,103.192656 L109.061109,98.7182031 C109.472828,98.4114062 109.713219,97.9186719 109.713219,97.4113281 L109.713219,95.2544531 C109.713219,95.2013281 109.713219,95.1482031 109.699938,95.0950781 L116.6115,92.6433594 L115.307281,114.099219 Z M94.9179063,120.251094 C94.3322031,119.371875 93.3334531,118.839297 92.2815781,118.839297 L81.5343906,118.839297 C80.4811875,118.839297 79.4957188,119.371875 78.9100156,120.237812 L73.9295469,127.681953 L73.9295469,103.524687 L79.8954844,99.4101562 L79.8689219,103.630937 L79.8556406,106.335 L79.8436875,107.680391 L79.8436875,108.025703 L79.8556406,108.279375 L79.8822031,108.612734 C79.9486094,109.065625 80.1225938,109.505234 80.3749375,109.890391 C80.8543906,110.663359 81.6924375,111.195937 82.5995469,111.342031 L82.9329063,111.381875 L83.5318906,111.381875 L84.2105625,111.396484 L86.914625,111.408438 L89.6173594,111.396484 L90.28275,111.381875 L90.8817344,111.381875 L91.2150938,111.342031 C92.1341563,111.195937 92.9615781,110.663359 93.4529844,109.890391 C93.6920469,109.505234 93.8647031,109.065625 93.9324375,108.612734 L93.9722813,108.279375 L93.9722813,106.335 L93.9603281,103.630937 L93.9324375,99.4101562 L99.8837656,103.511406 L99.8837656,127.681953 L94.9179063,120.251094 Z M96.2486875,130.759219 L77.564625,130.759219 C76.9789219,130.759219 76.4184531,130.585234 75.9403281,130.253203 L81.4812656,121.968359 L81.5343906,121.943125 L92.2815781,121.943125 L92.3347031,121.968359 L97.8743125,130.253203 C97.3935313,130.585234 96.8357188,130.759219 96.2486875,130.759219 L96.2486875,130.759219 Z M65.9647813,93.6567188 C65.4999375,93.5903125 65.0603281,93.723125 64.7282969,93.9900781 L55.1259531,85.0929687 C54.9519688,84.8140625 54.8324375,84.5072656 54.75275,84.1885156 L50.6647813,66.13 C50.2384531,64.2254687 51.7166563,62.4271875 53.6610313,62.4803125 L63.8743125,62.7207031 L64.3418125,66.8764062 L64.4613438,67.968125 L64.52775,68.5272656 C64.5675938,68.8871875 64.6738438,69.2325 64.8345469,69.5525781 C64.9939219,69.8859375 65.2064219,70.178125 65.473375,70.4185156 C65.6991563,70.6708594 66.1122031,70.91125 66.2051719,70.9510938 L67.1507969,71.5102344 L70.9465781,73.7467969 L76.0997031,76.7828906 C76.7797031,78.8215625 77.4849375,80.8589063 78.2047813,82.89625 L79.9486094,87.6907812 L79.9220469,92.830625 L79.9087656,95.720625 L65.9647813,93.6567188 Z M70.8270469,125.910234 L59.5459531,116.189687 C58.9336875,115.657109 58.5618125,114.910703 58.5086875,114.099219 L57.2031406,92.6433594 L64.1147031,95.0950781 C64.1014219,95.1482031 64.1014219,95.2013281 64.1014219,95.2544531 L64.1014219,97.4113281 C64.1014219,97.9186719 64.3537656,98.4114062 64.7668125,98.7182031 L70.8270469,103.192656 L70.8270469,125.910234 Z M83.0391563,87.7571875 C83.0391563,87.6509375 83.0245469,87.3574219 82.97275,87.1582031 C82.9461875,86.9576562 82.8651719,86.7172656 82.7987656,86.5578906 L82.6659531,86.2391406 L82.399,85.626875 L81.8664219,84.3744531 C81.5078281,83.5483594 81.1213438,82.736875 80.7481406,81.9107812 C80.2155625,80.7925 79.6697031,79.6728906 79.1105625,78.5546094 L82.3193125,80.4591406 L84.2105625,81.5774219 L85.1561875,82.1378906 L85.4364219,82.2972656 C85.5825156,82.3769531 85.7418906,82.4433594 85.9012656,82.5097656 C86.2200156,82.6173438 86.5679844,82.6704688 86.914625,82.6704688 C87.2479844,82.6704688 87.5932969,82.6173438 87.9266563,82.5097656 C88.0860313,82.4433594 88.232125,82.3769531 88.3915,82.2972656 L88.6584531,82.1378906 L89.6040781,81.5774219 L91.4953281,80.4591406 L94.7040781,78.5546094 C94.1449375,79.6609375 93.5990781,80.7925 93.0665,81.9107812 C92.6932969,82.736875 92.3068125,83.5483594 91.9615,84.3744531 L91.4275938,85.626875 L91.1619688,86.2391406 L91.0278281,86.5578906 C90.9494688,86.7172656 90.8817344,86.9576562 90.8432188,87.1582031 C90.803375,87.3574219 90.7887656,87.6509375 90.7754844,87.7571875 L90.7754844,88.1025 L90.7622031,88.7692187 L90.75025,90.1278906 L90.7090781,92.830625 L90.5629844,103.630937 L90.5231406,106.335 L90.5098594,107.680391 L90.5098594,107.866328 L90.28275,107.866328 L89.6173594,107.853047 L86.914625,107.813203 L84.2105625,107.853047 L83.5318906,107.866328 L83.3180625,107.866328 L83.3047813,107.680391 L83.2915,106.335 L83.2516563,103.630937 L83.1175156,92.830625 L83.0776719,90.1278906 L83.0524375,88.7692187 L83.0524375,88.1025 L83.0391563,87.7571875 Z M107.355797,57.9527344 L106.904234,61.975625 L106.398219,66.5297656 L106.264078,67.6214844 L106.210953,68.1540625 L106.196344,68.180625 L106.196344,68.1939062 C106.171109,68.2204687 106.249469,68.1673438 106.036969,68.3001562 L105.091344,68.8725781 L101.336734,71.1635937 L98.95275,72.6019531 L97.4081406,73.5475781 L93.7982969,75.7310156 L90.0423594,78.00875 L88.1511094,79.1549219 L87.2068125,79.7140625 L86.9810313,79.8601563 L86.914625,79.8734375 L86.8336094,79.8601563 L86.6065,79.7140625 L85.660875,79.1549219 L83.7842344,78.00875 L80.0150156,75.7310156 L76.4065,73.5475781 L74.8618906,72.6019531 L72.4911875,71.1635937 L68.7232969,68.8725781 L67.789625,68.3001562 C67.5638438,68.1673438 67.6581406,68.2204687 67.63025,68.1939062 L67.6182969,68.180625 L67.6050156,68.1540625 L67.5505625,67.6214844 L67.4310313,66.5297656 L66.9104063,61.975625 L66.4575156,57.9527344 L107.355797,57.9527344 Z M131.567516,53.1183594 L123.776734,53.3189062 L111.098453,53.624375 C110.685406,53.6376562 110.273688,53.5579688 109.887203,53.3985938 L102.934469,50.521875 L102.508141,50.3492187 L102.05525,50.2164062 C101.003375,49.8963281 96.8224375,48.8842969 86.914625,48.8842969 C76.9922031,48.8842969 72.8112656,49.8963281 71.7593906,50.2164062 L71.3197813,50.3492187 L70.8801719,50.521875 L63.9274375,53.3985938 C63.5422813,53.5579688 63.1292344,53.6376562 62.7161875,53.624375 L50.0379063,53.3189062 L42.2484531,53.1183594 C40.2894688,53.0785156 38.8245469,54.8767969 39.250875,56.7813281 L40.9694688,64.3848438 L46.1372031,87.2113281 L46.7348594,89.8476563 C46.8025938,90.1544531 46.97525,90.4214062 47.2289219,90.620625 L47.5609531,90.88625 C47.8664219,91.1266406 48.0536875,91.4998437 48.0815781,91.885 L49.5318906,115.909453 L49.6912656,118.480703 C49.7324375,119.278906 50.1056406,120.037266 50.7179063,120.571172 L52.6622813,122.236641 L70.5335313,137.629609 L72.2375156,139.095859 C72.783375,139.562031 73.4766563,139.827656 74.1965,139.827656 L99.6181406,139.827656 C100.336656,139.827656 101.029938,139.562031 101.577125,139.095859 L103.281109,137.629609 L121.152359,122.236641 L123.096734,120.571172 C123.710328,120.037266 124.082203,119.278906 124.122047,118.480703 L124.28275,115.909453 L125.733063,91.885 C125.760953,91.4998437 125.945563,91.1266406 126.253688,90.88625 L126.600328,90.620625 C126.838063,90.4214062 127.012047,90.1544531 127.078453,89.8476563 L127.678766,87.2113281 L132.845172,64.3848438 L134.563766,56.7813281 C135.003375,54.8767969 133.525172,53.0785156 131.567516,53.1183594 L131.567516,53.1183594 Z" id="Fill-285" fill="#006880"></path>
                <path d="M79.8431562,67.3283672 L85.98175,71.6434453 C86.5408906,72.0418828 87.2859687,72.0418828 87.8331562,71.6434453 L93.9730781,67.3283672 C95.2626875,66.4225859 94.6251875,64.3985234 93.0526875,64.3985234 L80.7741719,64.3985234 C79.1897187,64.3985234 78.5495625,66.4225859 79.8431562,67.3283672" id="Fill-287" fill="#E8E8E8"></path>
                <path d="M80.7744375,64.3985234 L93.0529531,64.3985234 C94.6254531,64.3985234 95.2629531,66.4225859 93.9733437,67.3283672 L87.8320937,71.6434453 C87.2862344,72.0418828 86.5411562,72.0418828 85.9820156,71.6434453 L79.8434219,67.3283672 C78.5498281,66.4225859 79.1899844,64.3985234 80.7744375,64.3985234 L80.7744375,64.3985234 Z M67.4307656,66.5288359 L67.551625,67.6218828 L67.60475,68.1544609 L67.6180312,68.1810234 L67.6313125,68.1943047 C67.657875,68.2208672 67.5649062,68.1677422 67.7906875,68.3005547 L68.7230312,68.8729766 L72.49225,71.1639922 L74.861625,72.6023516 L76.4075625,73.5479766 L80.0160781,75.7314141 L83.7852969,78.0091484 L85.6619375,79.1539922 L86.6075625,79.7131328 L86.8333437,79.8605547 L86.9143594,79.8738359 L86.9807656,79.8605547 L87.207875,79.7131328 L88.1535,79.1539922 L90.0434219,78.0091484 L93.7993594,75.7314141 L97.407875,73.5479766 L98.9538125,72.6023516 L101.336469,71.1639922 L105.092406,68.8729766 L106.036703,68.3005547 C106.250531,68.1677422 106.170844,68.2208672 106.197406,68.1943047 L106.197406,68.1810234 L106.210687,68.1544609 L106.263812,67.6218828 L106.397953,66.5288359 L106.903969,61.9746953 L107.356859,57.9531328 L66.4585781,57.9531328 L66.9114687,61.9746953 L67.4307656,66.5288359 Z" id="Fill-289" fill="#33BEDE"></path>
                <path d="M83.0779375,90.127625 L83.1191094,92.8303594 L83.2519219,103.630672 L83.2917656,106.334734 L83.3050469,107.680125 L83.3183281,107.866063 L83.5321562,107.866063 L84.2108281,107.852781 L86.9148906,107.812937 L89.617625,107.852781 L90.2830156,107.866063 L90.510125,107.866063 L90.510125,107.680125 L90.5220781,106.334734 L90.56325,103.630672 L90.7093437,92.8303594 L90.7491875,90.127625 L90.7624687,88.7702812 L90.7770781,88.1035625 L90.7770781,87.7569219 C90.7903594,87.6506719 90.8023125,87.3571563 90.8434844,87.1579375 C90.882,86.9573906 90.9497344,86.7183281 91.0294219,86.557625 L91.1622344,86.238875 L91.4278594,85.6266094 L91.9604375,84.3741875 C92.3070781,83.5480937 92.6935625,82.7366094 93.0667656,81.9105156 C93.5993437,80.7922344 94.1452031,79.6606719 94.7043437,78.5543437 L91.4955937,80.458875 L89.6043437,81.5784844 L88.6587187,82.1362969 L88.3930937,82.297 C88.2323906,82.3766875 88.0862969,82.4430937 87.9255937,82.5108281 C87.5922344,82.6170781 87.24825,82.6702031 86.9148906,82.6702031 C86.56825,82.6702031 86.2216094,82.6170781 85.9015312,82.5108281 C85.7421562,82.4430937 85.5827812,82.3766875 85.4353594,82.297 L85.155125,82.1362969 L84.2108281,81.5784844 L82.3195781,80.458875 L79.1108281,78.5543437 C79.6699687,79.672625 80.2158281,80.7922344 80.7484062,81.9105156 C81.1202812,82.7366094 81.5067656,83.5480937 81.8666875,84.3741875 L82.3992656,85.6266094 L82.6648906,86.238875 L82.7990312,86.557625 C82.8667656,86.7183281 82.945125,86.9573906 82.9730156,87.1579375 C83.0248125,87.3571563 83.0394219,87.6506719 83.0394219,87.7569219 L83.051375,88.1035625 L83.051375,88.7702812 L83.0779375,90.127625 Z" id="Fill-291" fill="#E8E8E8"></path>
                <path d="M64.1015547,97.4115937 L64.1015547,95.2547187 C64.1015547,95.2015937 64.1015547,95.1484687 64.1148359,95.0953437 L57.2032734,92.643625 L58.5088203,114.098156 C58.5619453,114.910969 58.9338203,115.656047 59.5460859,116.189953 L70.8258516,125.9105 L70.8258516,103.192922 L64.7669453,98.7171406 C64.3538984,98.4103437 64.1015547,97.9189375 64.1015547,97.4115937" id="Fill-293" fill="#33BEDE"></path>
                <path d="M79.9223125,92.830625 L79.948875,87.6907812 L78.2050469,82.89625 C77.4852031,80.8589062 76.7799688,78.8215625 76.0999687,76.7828906 L70.9468437,73.7467969 L67.1510625,71.5102344 L66.2054375,70.9497656 C66.1137969,70.91125 65.6994219,70.6708594 65.4736406,70.4185156 C65.2066875,70.178125 64.9941875,69.8859375 64.8348125,69.5525781 C64.6754375,69.2325 64.5665313,68.8871875 64.5280156,68.5272656 L64.4602812,67.968125 L64.3420781,66.8764062 L63.8745781,62.7207031 L53.6612969,62.4803125 C51.7169219,62.4271875 50.2373906,64.2254687 50.6650469,66.13 L54.7530156,84.1885156 C54.831375,84.5072656 54.9522344,84.8140625 55.1262188,85.0929687 L64.7285625,93.9900781 C65.0605937,93.723125 65.5002031,93.5903125 65.9650469,93.6567187 L79.9090313,95.720625 L79.9223125,92.830625 Z" id="Fill-295" fill="#33BEDE"></path>
                <path d="M109.713086,95.2547187 L109.713086,97.4115937 C109.713086,97.9189375 109.474023,98.4103438 109.060977,98.7171406 L103.000742,103.192922 L103.000742,125.897219 L114.268555,116.189953 C114.88082,115.656047 115.254023,114.910969 115.307148,114.098156 L116.611367,92.643625 L109.699805,95.0953438 C109.713086,95.1484688 109.713086,95.2015937 109.713086,95.2547187" id="Fill-297" fill="#33BEDE"></path>
                <path d="M120.153875,62.4808437 L109.940594,62.7199062 L109.474422,66.8756094 L109.353562,67.9673281 L109.287156,68.5264687 C109.247312,68.8863906 109.141062,69.2317031 108.981687,69.5517812 C108.820984,69.8851406 108.608484,70.1786562 108.354812,70.4177187 C108.11575,70.6713906 107.715984,70.9104531 107.621687,70.9502969 L106.664109,71.5094375 L102.881609,73.7473281 L97.7271562,76.7701406 C97.0617656,78.8207656 96.3419219,80.8727187 95.6114531,82.8967812 L93.8649687,87.6899844 L93.9061406,92.8311562 L93.9194219,95.7198281 L107.862078,93.65725 C108.314969,93.5908437 108.754578,93.7223281 109.087937,93.9906094 L118.675672,85.1200625 C118.861609,84.827875 118.99575,84.5210781 119.062156,84.1877187 L123.151453,66.1305312 C123.576453,64.2246719 122.111531,62.4277187 120.153875,62.4808437" id="Fill-299" fill="#33BEDE"></path>
                <path d="M92.2814453,121.942992 L81.5342578,121.942992 L81.4811328,121.969555 L75.9401953,130.25307 C76.4209766,130.585102 76.9801172,130.759086 77.5644922,130.759086 L96.2485547,130.759086 C96.8355859,130.759086 97.3947266,130.585102 97.8741797,130.25307 L92.3345703,121.969555 L92.2814453,121.942992 Z" id="Fill-301" fill="#E8E8E8"></path>
                <path d="M93.9596641,103.630672 L93.9729453,106.334734 L93.9729453,108.279109 L93.9317734,108.612469 C93.8653672,109.065359 93.6927109,109.504969 93.4523203,109.890125 C92.9609141,110.663094 92.1348203,111.195672 91.2157578,111.341766 L90.8823984,111.381609 L90.2820859,111.381609 L89.6166953,111.396219 L86.9139609,111.408172 L84.2098984,111.396219 L83.5312266,111.381609 L82.9322422,111.381609 L82.5988828,111.341766 C81.6944297,111.195672 80.8550547,110.663094 80.3742734,109.890125 C80.1219297,109.504969 79.9479453,109.065359 79.8815391,108.612469 L79.8563047,108.279109 L79.8430234,108.026766 L79.8430234,107.680125 L79.8563047,106.334734 L79.8695859,103.630672 L79.8948203,99.4098906 L73.9302109,103.524422 L73.9302109,127.681687 L78.9106797,120.237547 C79.4950547,119.372937 80.4831797,118.839031 81.5350547,118.839031 L92.2809141,118.839031 C93.3327891,118.839031 94.3315391,119.372937 94.9185703,120.252156 L99.8857578,127.681687 L99.8857578,103.511141 L93.9317734,99.4098906 L93.9596641,103.630672 Z" id="Fill-303" fill="#E8E8E8"></path>
            </g>
        </g>
    </g>
</svg>